<?xml version="1.0" encoding="UTF-8"?>
<!DOCTYPE svg PUBLIC "-//W3C//DTD SVG 1.1//EN" "http://www.w3.org/Graphics/SVG/1.1/DTD/svg11.dtd">
<!-- Creator: CorelDRAW 2018 (64-Bit) -->
<svg xmlns="http://www.w3.org/2000/svg" xml:space="preserve" width="135mm" height="85mm" version="1.1" style="shape-rendering:geometricPrecision; text-rendering:geometricPrecision; image-rendering:optimizeQuality; fill-rule:evenodd; clip-rule:evenodd"
viewBox="0 0 13500 8500"
 xmlns:xlink="http://www.w3.org/1999/xlink">
 <defs>
  <style type="text/css">
   <![CDATA[
    .str0 {stroke:#FEFEFE;stroke-width:20;stroke-miterlimit:22.9256}
    .fil0 {fill:#FEFEFE}
    .fil1 {fill:#2B2A29}
    .fil2 {fill:#5CB139}
   ]]>
  </style>
 </defs>
 <g id="Слой_x0020_1">
  <metadata id="CorelCorpID_0Corel-Layer"/>
  <g id="_1499770011856">
   <polygon class="fil0 str0" points="1.3,-1.31 13501.3,-1.31 13501.3,8498.69 1.3,8498.69 "/>
   <g>
    <polygon class="fil1" points="1304.67,8060.58 2110.53,7251.82 1839.92,6980.21 1335.23,7486.83 417.59,6565.87 116.78,6868.03 "/>
    <polygon class="fil1" points="1636.83,5828.77 1839.61,6032.21 2257.71,5612.43 2499.88,5855.69 2081.67,6275.4 2340.27,6534.83 2857.22,6016.02 3099.39,6258.95 2281.14,7080.56 1092.91,5888.21 1911.29,5066.36 2153.74,5309.78 "/>
    <path class="fil1" d="M4282.2 5071.76l-808.25 -230.15 0.71 -0.38c93.41,-177.57 51.54,-418.33 -112.14,-582.76 -176.19,-176.37 -476.44,-170.21 -676.47,30.82l-0.3 -0.21 -601.86 604.38 1187.95 1192.69 301.43 -302.88 -961.6 -965.27 194.19 -194.93c86.64,-86.96 224.02,-89.86 307.74,-5.7 83.73,83.88 81.41,222.28 -5.2,309.22l-177.05 177.76 1027.17 291.88 323.68 -324.47z"/>
    <path class="fil1" d="M3738.02 3180.27c371.45,-373.03 862.59,-336.87 1210.64,12.66 347.95,349.44 384.36,842.26 12.84,1215.15 -371.64,372.87 -862.6,336.76 -1210.52,-12.66 -348.36,-349.5 -384.36,-842.35 -12.96,-1215.15zm236.08 236.82c-188.39,189.18 -125.59,419.1 104.02,649.63 229.67,230.41 458.72,293.61 647.22,104.46 188.43,-189.15 125.53,-419.03 -104.11,-649.58 -229.71,-230.46 -458.72,-293.66 -647.13,-104.51z"/>
    <polygon class="fil1" points="5306.51,2553.76 5085.48,1880.45 5437.15,1527.67 5732.15,2681.88 6197.47,3149.36 5896.17,3451.85 5433.1,2987.02 4331.09,2637.67 4662.82,2304.82 5300.25,2552.92 "/>
    <polygon class="fil1" points="10804.11,6663.94 11992.27,5471.37 11675.69,5153.45 10487.53,6346.12 "/>
    <polygon class="fil1" points="6257.64,2100.59 7181.72,1658.07 6499.25,2342.99 6773.74,2618.39 7961.65,1425.96 7584.65,1047.37 6690,1485.19 6690,1485.26 7137.72,598.71 6748.86,208.82 5561.14,1401.13 5835.67,1676.71 6517.84,991.89 6076.94,1919.13 "/>
    <polygon class="fil1" points="8317.47,2269.15 8114.7,2472.71 8570.43,2930.15 8328.16,3173.47 7872.5,2715.8 7613.88,2975.38 8168.52,3531.78 7926.31,3775.15 7070.23,2915.89 8258.13,1723.26 9114.4,2582.56 8872.01,2825.52 "/>
    <polygon class="fil1" points="9464.22,5320.22 10269.87,6129.13 10540.48,5857.65 10035.67,5350.91 10953.23,4429.87 10652.01,4127.86 "/>
    <polygon class="fil1" points="12664.53,6145.66 12283.91,7409.75 12283.17,7410.43 13103.52,6586.76 13385.81,6869.87 12197.99,8061.65 11825.77,7688.05 12150.37,6385.82 12151.34,6385.15 11339.48,7199.86 11065.15,6924.59 12252.69,5732.44 "/>
    <path class="fil1" d="M9239.26 5094.68l229.01 -811.43 0.55 0.71c176.67,93.56 416.68,51.52 580.42,-112.63 175.91,-176.7 169.46,-478.05 -30.56,-679.04l0 -0.3 -639.41 -641.89 -1188.08 1192.66 301.47 302.64 961.65 -965.46 231.83 232.67c86.47,86.91 89.33,224.75 5.68,308.86 -83.73,84.11 -221.45,81.56 -307.92,-5.27l-214.62 -215.59 -253.49 1068.96 323.47 325.11z"/>
    <polygon class="fil2" points="1530.29,8288.55 11974.46,8288.55 6752.26,3047.17 "/>
   </g>
  </g>
 </g>
</svg>
